<svg xmlns="http://www.w3.org/2000/svg" style="border: 0 !important; clip: rect(0 0 0 0) !important; height: 1px !important; margin: -1px !important; overflow: hidden !important; padding: 0 !important; position: absolute !important; width: 1px !important;" class="root-svg-symbols-element">
    <symbol id="exit" viewBox="0 0 24 24">
      <path class="st0" d="M0 0h24v24H0V0z"/><path class="st1" d="M10.1 15.6l1.4 1.4 5-5-5-5-1.4 1.4 2.6 2.6H3v2h9.7l-2.6 2.6zM19 3H5c-1.1 0-2 .9-2 2v4h2V5h14v14H5v-4H3v4c0 1.1.9 2 2 2h14c1.1 0 2-.9 2-2V5c0-1.1-.9-2-2-2z"/>
    </symbol>
    <symbol id="logo" viewBox="0 0 51.92 75">
      <title>Logo</title><g data-name="&#x421;&#x43B;&#x43E;&#x439; 2"><g data-name="&#x421;&#x43B;&#x43E;&#x439; 1" fill="#fff"><path d="M8.05 47.16c4.4 2.52 8.69 2.48 14.68 2.4h5.47c5.59 0 10.71.08 15.63-2.4a.78.78 0 0 1 1.11.35.63.63 0 0 1 .12.35V73a.62.62 0 0 1-.16.47l-.67 1.14a.8.8 0 0 1-1.11.31.81.81 0 0 1-.32-.31l-.8-1.3-.75 1.26a.84.84 0 0 1-1.15.31 1.06 1.06 0 0 1-.28-.31l-.75-1.26-.75 1.26a.85.85 0 0 1-1.15.31.7.7 0 0 1-.28-.31l-.75-1.26-.75 1.26a.85.85 0 0 1-1.15.31.7.7 0 0 1-.28-.31l-.75-1.26-.75 1.26a.85.85 0 0 1-1.15.31.7.7 0 0 1-.28-.31l-.75-1.26-.75 1.26a.85.85 0 0 1-1.15.31.7.7 0 0 1-.28-.31l-.75-1.26-.75 1.26a.85.85 0 0 1-1.15.31 1.2 1.2 0 0 1-.32-.31l-.71-1.26-.75 1.26a.85.85 0 0 1-1.15.31 1.2 1.2 0 0 1-.32-.31l-.71-1.26-.75 1.26a.85.85 0 0 1-1.15.31 1.2 1.2 0 0 1-.32-.31l-.71-1.26-.75 1.26a.85.85 0 0 1-1.15.31 1.2 1.2 0 0 1-.32-.31l-.71-1.26-.75 1.26a.85.85 0 0 1-1.15.31 1.2 1.2 0 0 1-.32-.31l-.75-1.26-.71 1.26a.85.85 0 0 1-1.15.31 1.2 1.2 0 0 1-.32-.31l-.75-1.26L9 74.57a.85.85 0 0 1-1.15.31.81.81 0 0 1-.32-.31l-.67-1.18a.89.89 0 0 1-.12-.39V47.82a.83.83 0 0 1 .84-.82 1.13 1.13 0 0 1 .48.16zm14.72 4.05c-5.75.08-10 .12-14.36-2v23l.6-1a1.2 1.2 0 0 1 .32-.31.85.85 0 0 1 1.15.31l.71 1.26.75-1.26a1.2 1.2 0 0 1 .32-.31.85.85 0 0 1 1.15.31l.75 1.26.71-1.26a1.2 1.2 0 0 1 .32-.31.85.85 0 0 1 1.15.31l.75 1.26.71-1.26a1.2 1.2 0 0 1 .32-.31.85.85 0 0 1 1.15.31l.73 1.27.71-1.26a1.2 1.2 0 0 1 .32-.31.85.85 0 0 1 1.15.31l.82 1.26.71-1.26a1.2 1.2 0 0 1 .32-.31.85.85 0 0 1 1.15.31l.75 1.26.75-1.26a.7.7 0 0 1 .28-.31.85.85 0 0 1 1.15.31l.75 1.26.75-1.26a.7.7 0 0 1 .28-.31.85.85 0 0 1 1.15.31l.75 1.26.75-1.26a.7.7 0 0 1 .28-.31.85.85 0 0 1 1.15.31l.75 1.26.75-1.26a.7.7 0 0 1 .28-.31.85.85 0 0 1 1.15.31l.75 1.26.75-1.26a1.06 1.06 0 0 1 .28-.31.84.84 0 0 1 1.15.31l.75 1.26.75-1.26a1.06 1.06 0 0 1 .28-.31.83.83 0 0 1 1.15.31l.63 1V49.16c-4.88 2.08-9.84 2.08-15.23 2h-5.39z"/><path d="M17.3 25.76a8.67 8.67 0 1 1 8.7 8.57 8.65 8.65 0 0 1-8.69-8.57m-4.64 0A13.33 13.33 0 1 0 26 12.55a13.28 13.28 0 0 0-13.35 13.21M36.69 12a3.13 3.13 0 1 0 3.13-3.07A3.13 3.13 0 0 0 36.69 12M15.47 46.68a14.46 14.46 0 0 1-4.8-.87 8.07 8.07 0 0 1-3-1.93 8.16 8.16 0 0 1-1.94-2.95 14.42 14.42 0 0 1-.87-4.8c-.12-2.71-.16-3.54-.16-10.38s0-7.71.16-10.42a14.12 14.12 0 0 1 .87-4.76 8 8 0 0 1 1.94-3 8.07 8.07 0 0 1 3-1.93 14.46 14.46 0 0 1 4.8-.87C18.21 4.68 19 4.64 26 4.64s7.74 0 10.47.16a14.77 14.77 0 0 1 4.84.87 8.24 8.24 0 0 1 3 1.93 8 8 0 0 1 1.94 3 13.17 13.17 0 0 1 .87 4.76c.16 2.71.16 3.54.16 10.42s0 7.67-.16 10.38a13.44 13.44 0 0 1-.87 4.8 8.16 8.16 0 0 1-1.94 2.95 8.24 8.24 0 0 1-3 1.93 14.77 14.77 0 0 1-4.84.87c-2.74.16-3.57.16-10.47.16s-7.77 0-10.51-.16M15.27.16A19.29 19.29 0 0 0 9 1.34a13 13 0 0 0-4.6 3 12.91 12.91 0 0 0-3 4.56 18.84 18.84 0 0 0-1.24 6.24C0 17.89 0 18.76 0 25.76s0 7.87.16 10.58a18.63 18.63 0 0 0 1.19 6.25 12.91 12.91 0 0 0 3 4.56 12.52 12.52 0 0 0 4.6 3 19.29 19.29 0 0 0 6.31 1.18c2.78.12 3.65.16 10.71.16s7.93 0 10.67-.16A19.07 19.07 0 0 0 43 50.14a12.52 12.52 0 0 0 4.6-3 12.39 12.39 0 0 0 3-4.56 18.63 18.63 0 0 0 1.19-6.25c.12-2.71.16-3.62.16-10.58s0-7.87-.16-10.62a18.84 18.84 0 0 0-1.19-6.25 12.39 12.39 0 0 0-3-4.56 13 13 0 0 0-4.6-3A19 19 0 0 0 36.69.16C33.92 0 33 0 26 0s-8 0-10.73.16m0 0z" fill-rule="evenodd"/><path d="M32 52a.82.82 0 0 1 .12-1.18.79.79 0 0 1 1.15.16 9.2 9.2 0 0 1 2.14 5.9 9.38 9.38 0 0 1-2.78 6.69 9.55 9.55 0 0 1-6.74 2.79 9.41 9.41 0 0 1-6.74-2.79 9.22 9.22 0 0 1-2.78-6.69 9 9 0 0 1 .6-3.26 9.72 9.72 0 0 1 1.71-2.91.83.83 0 0 1 1.19-.08.82.82 0 0 1 .13 1.17 9 9 0 0 0-1.43 2.36 7.82 7.82 0 0 0-.57 2.71 7.62 7.62 0 0 0 2.3 5.51 7.85 7.85 0 0 0 13.41-5.51A8.08 8.08 0 0 0 32 52z"/><path d="M14.92 74.17a.83.83 0 0 1-.83.83.86.86 0 0 1-.83-.83 12.55 12.55 0 0 1 7-11.21.84.84 0 0 1 1.11.35.87.87 0 0 1-.37 1.15 10.92 10.92 0 0 0-4.44 4 10.76 10.76 0 0 0-1.63 5.7zm23.6 0a.83.83 0 0 1-1.67 0 10.76 10.76 0 0 0-1.63-5.7 10.56 10.56 0 0 0-4.4-4 .83.83 0 0 1-.36-1.14.84.84 0 0 1 1.12-.33 12.46 12.46 0 0 1 5.08 4.6 12.78 12.78 0 0 1 1.86 6.61zM24 60.76a.85.85 0 0 1-.12-1.18.82.82 0 0 1 1.12-.11 1.44 1.44 0 0 0 .87.28 1.33 1.33 0 0 0 .83-.28.87.87 0 0 1 1.19.12.86.86 0 0 1-.16 1.18 3.14 3.14 0 0 1-3.77 0zm-2.78-5.86a.83.83 0 0 1 1.67 0v2a.83.83 0 1 1-1.67 0zm7.66 0a.83.83 0 0 1 .83-.83.84.84 0 0 1 .87.83v2a.85.85 0 1 1-1.71 0zm-11.66 3.86a.83.83 0 0 1 .83.83.86.86 0 0 1-.83.83 3.52 3.52 0 0 1-2.5-1 3.49 3.49 0 0 1-1.07-2.52 3.4 3.4 0 0 1 1.07-2.48 3.52 3.52 0 0 1 2.5-1 .86.86 0 0 1 .83.83.83.83 0 0 1-.83.83 2.08 2.08 0 0 0-1.35.55 1.91 1.91 0 0 0-.52 1.3 2 2 0 0 0 .52 1.34 2.08 2.08 0 0 0 1.35.55zM34 60.37a.85.85 0 0 1-.71-1 .84.84 0 0 1 1-.67.88.88 0 0 1 .32 0 1.9 1.9 0 0 0 1.31-.55 1.86 1.86 0 0 0 .56-1.34 1.78 1.78 0 0 0-.56-1.3 1.9 1.9 0 0 0-1.33-.51h-.32a.84.84 0 0 1-1-.71.86.86 0 0 1 .71-.94h.56a3.59 3.59 0 0 1 2.5 1 3.53 3.53 0 0 1 1 2.48 3.62 3.62 0 0 1-1 2.52 3.59 3.59 0 0 1-2.5 1h-.28a.68.68 0 0 0-.28 0z"/></g></g>
    </symbol>
    <symbol id="marker" viewBox="0 0 30 30">
      <title>marker</title><g data-name="&#x421;&#x43B;&#x43E;&#x439; 2"><path d="M15 0A15 15 0 1 1 0 15 15 15 0 0 1 15 0zM6.14 14.88a1.93 1.93 0 0 1 0-2.83A2.15 2.15 0 0 1 9 12l4.49 4.61 7.68-7.56a1.93 1.93 0 0 1 2.83 0 2.16 2.16 0 0 1 0 2.83l-9.09 9a1.93 1.93 0 0 1-2.83 0z" fill="#fff" fill-rule="evenodd" data-name="&#x421;&#x43B;&#x43E;&#x439; 1"/></g>
    </symbol></svg>