<svg xmlns="http://www.w3.org/2000/svg" width="553.102" height="553.102" viewBox="0 0 553.102 553.102"><path d="M333.087 326.967c-8.641 0-16.805 4.799-24.485 14.4v-57.98h-24.125v177.529h24.125v-12.969c7.919 9.848 16.077 14.768 24.485 14.768 9.842 0 16.2-5.037 19.083-15.123 1.677-5.049 2.521-13.801 2.521-26.291v-52.576c0-12.719-.845-21.604-2.521-26.641-2.883-10.086-9.241-15.117-19.083-15.117zm-2.16 96.138c0 11.775-3.482 17.639-10.446 17.639-4.082 0-8.042-1.916-11.879-5.752v-80.668c3.837-3.826 7.797-5.754 11.879-5.754 6.958 0 10.446 6.004 10.446 18.006v56.529zm78.495-96.138c-12.24 0-21.849 4.572-28.807 13.686-4.804 6.469-7.203 16.811-7.203 30.961v46.463c0 14.162 2.521 24.473 7.564 30.961 6.958 9.131 16.683 13.684 29.168 13.684 12.724 0 22.325-4.797 28.807-14.406 2.883-4.32 4.682-9.113 5.404-14.406.477-3.348.716-8.525.716-15.49v-3.236h-24.486v7.734c0 2.515-.062 4.498-.178 5.949-.122 1.432-.177 2.277-.177 2.516-1.438 6.248-5.043 9.352-10.802 9.352-8.165 0-12.24-6.121-12.24-18.354v-23.41h47.889V371.61c0-13.912-2.521-24.236-7.559-30.963-6.486-9.108-15.85-13.68-28.096-13.68zm11.524 52.211h-23.765v-12.254c0-12.238 3.96-18.354 11.88-18.354 7.925 0 11.885 6.121 11.885 18.354v12.254zm-181.128 50.41c-5.281 7.441-10.324 11.156-15.123 11.156-3.366 0-5.165-1.799-5.397-5.404-.245-.465-.361-3.598-.361-9.352v-97.223h-23.764v104.426c0 9.131.722 15.6 2.16 19.438 2.161 6.738 7.203 10.086 15.123 10.086 8.88 0 18.005-5.404 27.369-16.205v14.406h24.125v-132.15h-24.125v100.822h-.007zm31.335-236.575c7.681 0 11.524-6.132 11.524-18.372v-56.182c0-12.479-3.843-18.721-11.524-18.721-7.687 0-11.524 6.242-11.524 18.721v56.182c0 12.239 3.837 18.372 11.524 18.372zM108.03 308.596h28.085v152.32h26.647v-152.32h28.806v-25.209H108.03z"/><path d="M449.398 0H103.71C75.142 0 50.717 10.153 30.429 30.422 10.141 50.723 0 75.142 0 103.709v345.683c0 28.566 10.141 52.998 30.429 73.268 20.282 20.281 44.707 30.441 73.281 30.441h345.688c28.562 0 52.986-10.154 73.274-30.441 20.281-20.27 30.429-44.701 30.429-73.268V103.709c0-28.568-10.147-52.987-30.429-73.287C502.385 10.153 477.96 0 449.398 0zM326.606 79.939h24.125v97.938c0 5.765.122 8.892.361 9.37.238 3.855 2.16 5.765 5.759 5.765 4.798 0 9.841-3.715 15.122-11.169V79.939h24.125v133.232h-24.125v-14.406c-9.847 10.802-19.088 16.206-27.729 16.206-7.687 0-12.846-3.237-15.483-9.719-1.438-4.32-2.16-10.918-2.16-19.804V79.939h.005zm-91.108 43.208c0-13.911 2.521-24.364 7.564-31.322 6.481-9.113 15.845-13.685 28.085-13.685 11.756 0 21.12 4.572 28.084 13.685 5.043 6.964 7.559 17.411 7.559 31.322v46.812c0 14.4-2.521 24.854-7.559 31.322-6.965 9.131-16.328 13.685-28.084 13.685-12.24 0-21.604-4.56-28.085-13.685-5.043-6.946-7.564-17.387-7.564-31.322v-46.812zm-64.811-88.936l19.088 70.215 18.36-70.215h27.008l-32.406 106.592v72.369h-26.646v-72.369c-2.644-13.207-8.164-32.167-16.566-56.897-1.683-5.514-4.45-13.801-8.287-24.853a18409.954 18409.954 0 0 1-8.642-24.841h28.091zm296.716 434.623c-2.405 10.338-7.51 19.09-15.307 26.293-7.803 7.203-16.866 11.406-27.185 12.6-32.89 3.6-82.345 5.404-148.355 5.404-66.023 0-115.472-1.799-148.355-5.404-10.325-1.193-19.388-5.402-27.185-12.6-7.803-7.203-12.907-15.949-15.3-26.293-4.804-20.158-7.203-51.371-7.203-93.623 0-41.523 2.399-72.736 7.203-93.623 2.399-10.551 7.503-19.37 15.3-26.458 7.797-7.087 16.983-11.224 27.546-12.436 32.644-3.599 81.978-5.404 148-5.404 66.255 0 115.705 1.799 148.355 5.404 10.324 1.212 19.449 5.343 27.368 12.436 7.926 7.087 13.085 15.906 15.484 26.458 4.559 19.932 6.842 51.133 6.842 93.623-.01 42.252-2.41 73.465-7.208 93.623z"/></svg>