<svg id="Слой_1" xmlns="http://www.w3.org/2000/svg" viewBox="0 0 416 336"><style>.st0{stroke:#000;stroke-miterlimit:10;fill:red}</style><path class="st0" d="M1932.3 3085.5c-318-305.5-1531-1457.3-1638-1555.3-36-32.7-75-69.2-86-81.7-12-12.5-49-49-83-80.7-33-31.7-69-65.3-78-74.9-17-17.3-6-18.3 395-14.4l413 2.9-1-583.1V114.1h820l2 392 3 391 403 2.9 402 1.9V114.1h405l405 1-2 580.2c-3 511.1-1 581.2 12 581.2h813l-24 25c-33 33.6-235 225.8-541 514l-258 242.1v391h-383l-252 247.9c-139 135.5-322 315.1-406 398.7l-154 150.8-167-160.5z" transform="matrix(.1 0 0 -.1 0 336)"/></svg>