<svg id="Слой_1" data-name="Слой 1" xmlns="http://www.w3.org/2000/svg" viewBox="0 0 100 60"><defs><style>.cls-1{fill:#fff}</style></defs><title>Logo-Style-House</title><path class="cls-1" d="M97.57 58.63s-1.47-.57-4-1.64c-1.26-.59-2.85-1.05-4.63-1.71s-3.83-1.24-6-1.91l-1.7-.51-1.79-.42-3.75-.91c-1.29-.29-2.63-.49-4-.74s-2.74-.54-4.17-.68l-4.33-.57c-1.46-.16-3-.23-4.45-.36l-2.3-.18c-.75 0-1.51 0-2.27-.06l-4.57-.12-4.61.12c-.77 0-1.54 0-2.3.07l-2.24.18c-1.49.13-3 .21-4.43.36l-4.33.57c-1.43.14-2.81.45-4.17.68s-2.7.45-4 .74l-3.75.91-1.78.41-1.7.51c-2.22.67-4.28 1.22-6.05 1.91S6.9 56.41 5.65 57c-2.53 1.06-4 1.64-4 1.64S3 57.76 5.4 56.3a50.39 50.39 0 0 1 4.45-2.38l1.35-.67.7-.35.74-.31 3.16-1.29 1.69-.69 1.78-.6L23 48.79c1.3-.39 2.65-.69 4-1.05s2.79-.71 4.24-.93l4.48-.81c1.5-.22 3-.34 4.58-.51l2.33-.23c.77-.06 1.54-.07 2.31-.1l4.67-.16 4.69.16c.78 0 1.56 0 2.33.1l2.31.23c1.53.16 3.06.29 4.56.51l4.42.77c1.45.22 2.86.58 4.24.93s2.73.66 4 1l3.79 1.3 1.78.6 1.69.69 3.16 1.3.74.31.71.35 1.35.68a49.85 49.85 0 0 1 4.45 2.37c2.39 1.46 3.74 2.33 3.74 2.33z"/><path class="cls-1" d="M40.52 37.65h4.16v-4.16h-4.16zm6.92 0h4.16v-4.16h-4.16zM96.22 47l-17.8-17.57v-18l-8.57-8.55V21l-17-16.74L49.52 1l-3.33 3.24L2.83 47l46.69-32.4zM49.61 4.55v7L20.19 32.88zM40.52 31.1h4.16v-4.16h-4.16zm6.92 0h4.16v-4.16h-4.16zm6.92 0h4.16v-4.16h-4.16zm0 6.55h4.16v-4.16h-4.16z"/></svg>